<svg xmlns="http://www.w3.org/2000/svg" width="600" height="300" viewBox="0 0 600 300">
  <defs>
    <linearGradient id="bg" x1="0%" y1="0%" x2="100%" y2="100%">
      <stop offset="0%" stop-color="#0c4a6e"/>
      <stop offset="100%" stop-color="#164e63"/>
    </linearGradient>
  </defs>
  <rect width="600" height="300" rx="12" fill="url(#bg)"/>
  <rect width="60" height="3" rx="1.5" x="40" y="40" fill="#db2777"/>
  <text x="40" y="90" fill="white" font-size="24" font-weight="700" font-family="Inter, system-ui, sans-serif">Wilshire Financial</text>
  <text x="40" y="115" fill="white" font-size="16" font-weight="500" font-family="Inter, system-ui, sans-serif" opacity="0.7">Network</text>
  <text x="40" y="155" fill="white" font-size="13" font-family="Inter, system-ui, sans-serif" opacity="0.5">AI Consultant Trainee · Internship</text>
  <text x="40" y="175" fill="white" font-size="13" font-family="Inter, system-ui, sans-serif" opacity="0.5">2025 · Remote</text>
  <text x="40" y="220" fill="#db2777" font-size="28" font-weight="700" font-family="Inter, system-ui, sans-serif">40%</text>
  <text x="40" y="242" fill="white" font-size="12" font-family="Inter, system-ui, sans-serif" opacity="0.5">Workflow Reduction</text>
  <text x="200" y="220" fill="#db2777" font-size="28" font-weight="700" font-family="Inter, system-ui, sans-serif">3</text>
  <text x="200" y="242" fill="white" font-size="12" font-family="Inter, system-ui, sans-serif" opacity="0.5">AI Integrations</text>
  <!-- Neural network decoration -->
  <circle cx="460" cy="80" r="6" fill="none" stroke="#db2777" stroke-width="1" opacity="0.3"/>
  <circle cx="520" cy="60" r="6" fill="none" stroke="#db2777" stroke-width="1" opacity="0.25"/>
  <circle cx="540" cy="120" r="6" fill="none" stroke="#db2777" stroke-width="1" opacity="0.2"/>
  <circle cx="480" cy="140" r="6" fill="none" stroke="#db2777" stroke-width="1" opacity="0.25"/>
  <line x1="466" y1="80" x2="514" y2="60" stroke="#db2777" stroke-width="0.5" opacity="0.2"/>
  <line x1="466" y1="80" x2="534" y2="120" stroke="#db2777" stroke-width="0.5" opacity="0.15"/>
  <line x1="520" y1="66" x2="540" y2="114" stroke="#db2777" stroke-width="0.5" opacity="0.15"/>
  <line x1="486" y1="140" x2="534" y2="120" stroke="#db2777" stroke-width="0.5" opacity="0.15"/>
  <rect x="480" y="190" width="80" height="80" rx="8" fill="#db2777" opacity="0.08"/>
  <text x="520" y="238" fill="#db2777" font-size="28" font-weight="700" font-family="Inter, system-ui, sans-serif" text-anchor="middle" opacity="0.4">🤖</text>
</svg>
